<svg width="33" height="33" viewBox="0 0 33 33" fill="none" xmlns="http://www.w3.org/2000/svg">
<path fill-rule="evenodd" clip-rule="evenodd" d="M16.5 -7.21238e-07C20.8761 -9.12522e-07 25.0729 1.73839 28.1673 4.83274C31.2616 7.92709 33 12.1239 33 16.5C33 20.8761 31.2616 25.0729 28.1673 28.1673C25.0729 31.2616 20.8761 33 16.5 33C12.1239 33 7.92709 31.2616 4.83274 28.1673C1.73839 25.0729 -5.29954e-07 20.8761 -7.21238e-07 16.5C-9.12522e-07 12.1239 1.73839 7.92709 4.83274 4.83274C7.92709 1.73839 12.1239 -5.29954e-07 16.5 -7.21238e-07ZM10.3125 15.4687C10.039 15.4687 9.77669 15.5774 9.5833 15.7708C9.3899 15.9642 9.28125 16.2265 9.28125 16.5C9.28125 16.7735 9.3899 17.0358 9.5833 17.2292C9.77669 17.4226 10.039 17.5312 10.3125 17.5312L20.1981 17.5312L15.7699 21.9574C15.674 22.0533 15.5979 22.1671 15.546 22.2924C15.4942 22.4176 15.4674 22.5519 15.4674 22.6875C15.4674 22.8231 15.4942 22.9574 15.546 23.0826C15.5979 23.2079 15.674 23.3217 15.7699 23.4176C15.8658 23.5135 15.9796 23.5896 16.1049 23.6415C16.2301 23.6933 16.3644 23.7201 16.5 23.7201C16.6356 23.7201 16.7699 23.6933 16.8951 23.6415C17.0204 23.5896 17.1342 23.5135 17.2301 23.4176L23.4176 17.2301C23.5137 17.1343 23.5899 17.0205 23.6418 16.8952C23.6938 16.77 23.7206 16.6356 23.7206 16.5C23.7206 16.3644 23.6938 16.23 23.6418 16.1048C23.5899 15.9795 23.5137 15.8657 23.4176 15.7699L17.2301 9.58237C17.0365 9.38873 16.7738 9.27995 16.5 9.27995C16.2261 9.27995 15.9635 9.38873 15.7699 9.58237C15.5762 9.77602 15.4674 10.0386 15.4674 10.3125C15.4674 10.5863 15.5762 10.849 15.7699 11.0426L20.1981 15.4687L10.3125 15.4687Z" fill="#EB4436"/>
</svg>
